<?xml version="1.0" encoding="UTF-8"?>
<svg id="uuid-191e0358-8000-4219-b2c9-c00047afaff5" data-name="Capa 1" xmlns="http://www.w3.org/2000/svg" width="396.75" height="91.59" viewBox="0 0 396.75 91.59">
  <g id="uuid-ba146ffb-ee9c-408d-b3d3-9c3de6c773ba" data-name="b">
    <g id="uuid-b3897e88-6d0e-4877-b91f-64af55cfe7ff" data-name="c">
      <path d="M0,45.88C-.06,20.6,20.38,.06,45.66,0c25.28-.06,45.82,20.38,45.88,45.66,.06,25.28-20.38,45.82-45.66,45.88C20.64,91.52,.14,71.12,0,45.88Z" style="fill: #966436;"/>
      <path d="M198.45,91.55c-25.28,.05-45.81-20.4-45.86-45.68C152.54,20.59,172.99,.06,198.27,.01s45.81,20.4,45.86,45.68h0c-.05,25.25-20.44,45.72-45.68,45.86h0Z" style="fill: #966436;"/>
      <path d="M305.21,45.59C305.34,20.31,325.93-.08,351.21,.05c25.28,.13,45.67,20.72,45.54,46-.13,25.26-20.69,45.64-45.95,45.54-25.26-.18-45.63-20.74-45.59-46Z" style="fill: #966436;"/>
    </g>
  </g>
</svg>