<?xml version="1.0" encoding="UTF-8"?><svg xmlns="http://www.w3.org/2000/svg" viewBox="0 0 59.74 73.78"><g id="a"/><g id="b"><g id="c"><g><path d="M57.37,2.8c-3.68-1.07-12-2.8-27.51-2.8S6.02,1.73,2.34,2.8c-1.4,.4-2.34,1.74-2.34,3.24V63.63c0,.81,.63,1.46,1.4,1.46h2.77v7.18c0,.84,.67,1.51,1.52,1.51h6.14c.83,0,1.51-.67,1.51-1.51v-7.18H46.4v7.18c0,.84,.68,1.51,1.52,1.51h6.13c.84,0,1.51-.67,1.51-1.51v-7.18h2.78c.79,0,1.4-.65,1.4-1.46V6.04c-.02-1.51-.97-2.85-2.37-3.24M11.72,7.24c0-.79,.65-1.45,1.44-1.45H46.7c.79,0,1.44,.66,1.44,1.45v3.5c0,.79-.65,1.44-1.44,1.44H13.15c-.79,0-1.44-.65-1.44-1.44v-3.5Zm3.81,47.09c0,.83-.67,1.51-1.51,1.51H6.25c-.83,0-1.5-.68-1.5-1.51v-3.14c0-.84,.67-1.51,1.5-1.51h7.76c.84,0,1.51,.68,1.51,1.51v3.14Zm39.46,0c0,.83-.68,1.51-1.52,1.51h-7.76c-.83,0-1.51-.68-1.51-1.51v-3.14c0-.84,.68-1.51,1.51-1.51h7.76c.84,0,1.52,.68,1.52,1.51v3.14h0Zm0-14.34c0,.79-.68,1.44-1.52,1.44H6.39c-.84,0-1.51-.65-1.51-1.44V16.83c0-.78,.67-1.44,1.51-1.44H53.47c.84,0,1.52,.66,1.52,1.44v23.16h0Z" style="fill:#e84d00;"/><path d="M50.65,38.68c-.11,0-.23-.02-.36-.06-.03,0-1.88-.67-4.29-.67s-4.27,.67-4.29,.67c-.51,.2-1.1-.07-1.27-.59-.21-.51,.06-1.08,.58-1.28,.09-.02,2.21-.81,4.98-.81s4.9,.78,4.99,.81c.52,.21,.79,.77,.58,1.28-.13,.41-.51,.66-.92,.66" style="fill:#e84d00;"/></g></g></g></svg>